<svg width="112" height="71" viewBox="0 0 112 71" fill="none" xmlns="http://www.w3.org/2000/svg">
<path d="M55.6138 0H70.5187V30.1757C72.2703 30.1757 74.1397 29.1514 76.127 27.1027C78.148 25.0205 80.7585 21.427 83.9585 16.3221L94.3667 0H109.524L96.135 20.4026C91.9583 26.7501 89.0784 30.5116 87.4952 31.687L112 70.981H95.7814L76.8849 38.7398C76.2112 39.1764 75.2176 39.5794 73.9039 39.9488C72.5903 40.3183 71.445 40.503 70.4682 40.503V70.981H55.6138V0Z" fill="#4D4D99"/>
<mask id="mask0" mask-type="alpha" maskUnits="userSpaceOnUse" x="0" y="0" width="49" height="71">
<rect width="48.2385" height="71" fill="#C4C4C4"/>
</mask>
<g mask="url(#mask0)">
<path d="M29.8619 20.2312V68.1371M37.8773 20.2312V68.1371M45.5586 20.2312V68.1371" stroke="#4D4D99" stroke-width="5.05358" stroke-linecap="round"/>
<path d="M15.5298 9.89685H38.088H42.0311H65.1636C65.076 11.5653 63.5906 14.6241 58.329 14.6241C55.789 14.6241 52.0425 14.6025 48.3342 14.5905C45.3302 14.5809 42.3515 14.5776 40.0596 14.5974C34.9384 14.5532 26.9618 14.6241 22.3644 14.6241C17.1028 14.6241 15.6174 11.5653 15.5298 9.89685Z" fill="#4D4D99"/>
<path d="M15.5298 9.89685H42.0311M15.5298 9.89685C15.6174 11.5653 17.1028 14.6241 22.3644 14.6241C26.9618 14.6241 34.9384 14.5532 40.0596 14.5974M15.5298 9.89685H38.088M42.0311 9.89685H38.088M42.0311 9.89685H65.1636M42.0311 14.6241C41.4591 14.6125 40.7947 14.6037 40.0596 14.5974M65.1636 9.89685H38.088M65.1636 9.89685C65.076 11.5653 63.5906 14.6241 58.329 14.6241C55.789 14.6241 52.0425 14.6025 48.3342 14.5905C45.3302 14.5809 42.3515 14.5776 40.0596 14.5974M38.088 14.6241C38.66 14.6125 39.3244 14.6037 40.0596 14.5974" stroke="#4D4D99" stroke-width="0.527542"/>
<path d="M43.3455 0H36.5109H2.61826V3.07524C12.4425 2.76747 13.6669 5.0578 13.6669 7.50797H36.5109H43.3455H67.5295C67.3192 2.61389 70.5963 2.13189 72.2611 2.50266V0H43.3455Z" fill="#4D4D99"/>
<path d="M43.3455 0H2.61826M43.3455 0H36.5109M43.3455 0H72.2611M2.61826 0V3.07524C12.4425 2.76747 13.6669 5.0578 13.6669 7.50797M2.61826 0H36.5109M13.6669 7.50797H43.3455M13.6669 7.50797H36.5109M43.3455 7.50797H36.5109M43.3455 7.50797H67.5295M36.5109 0H72.2611M72.2611 0V2.50266C70.5963 2.13189 67.3192 2.61389 67.5295 7.50797M67.5295 7.50797H36.5109" stroke="#4D4D99" stroke-width="0.527542"/>
</g>
<path d="M4.78558 9.543L4.78558 63.7473" stroke="#4D4D99" stroke-width="5.05358"/>
<path d="M4.78558 25.4799L4.78579 68.1371" stroke="#4D4D99" stroke-width="5.05358" stroke-linecap="round"/>
</svg>
