<svg width="113" height="196" viewBox="0 0 113 196" fill="none" xmlns="http://www.w3.org/2000/svg">
<mask id="mask0" mask-type="alpha" maskUnits="userSpaceOnUse" x="0" y="0" width="113" height="196">
<rect width="113" height="196" fill="#C4C4C4"/>
</mask>
<g mask="url(#mask0)">
<path d="M56.497 195.995V196L112.996 163.333L112.997 98.0015L56.4993 130.667L56.5012 195.997L56.497 195.995Z" fill="url(#paint0_linear)"/>
<path d="M56.497 196L112.998 163.336M56.497 196L112.996 163.333L112.997 98.0015M56.497 196V195.995M112.997 98.0015L112.999 163.333M112.997 98.0015L112.998 32.6699M112.997 98.0015L56.4993 130.667M0.000244141 163.333L56.497 195.995M0.00595093 98.011L0.00424194 163.342M0.00595093 98.011L0.000976562 163.33L56.497 195.995M0.00595093 98.011L56.4993 130.666V130.667M0.00595093 98.011L56.5004 65.3345L113.001 97.9989M0.00595093 98.011L56.4998 130.663L113.001 97.9989M0.00595093 98.011L56.4978 65.3319L56.4995 0M113.001 97.9989L56.5011 65.3319L56.4995 0M113.001 97.9989L112.999 32.6679L56.4995 0M56.497 195.995L56.5012 195.997L56.4993 130.667M56.497 195.995L56.4976 130.668L56.4993 130.667" stroke="#494991" stroke-width="5" stroke-linejoin="round"/>
</g>
<defs>
<linearGradient id="paint0_linear" x1="56.5006" y1="0" x2="56.5006" y2="196" gradientUnits="userSpaceOnUse">
<stop stop-color="#4D4D99"/>
<stop offset="1" stop-color="#494991"/>
</linearGradient>
</defs>
</svg>
