<svg width="52" height="62" viewBox="0 0 52 62" fill="none" xmlns="http://www.w3.org/2000/svg">
<path d="M45.9815 0H6.01852C2.69991 0 0 2.71613 0 6.05469V55.9453C0 59.2839 2.69991 62 6.01852 62H45.9815C49.3001 62 52 59.2839 52 55.9453V6.05469C52 2.71613 49.3001 0 45.9815 0ZM6.01852 2.42188H45.9815C47.9726 2.42188 49.5926 4.05155 49.5926 6.05469V6.53906H31.4167C30.7519 6.53906 30.213 7.08132 30.213 7.75C30.213 8.41868 30.7519 8.96094 31.4167 8.96094H49.5926V29.7891H2.40741V8.96094H20.5833C21.2481 8.96094 21.787 8.41868 21.787 7.75C21.787 7.08132 21.2481 6.53906 20.5833 6.53906H2.40741V6.05469C2.40741 4.05155 4.02735 2.42188 6.01852 2.42188ZM45.9815 59.5781H6.01852C4.02735 59.5781 2.40741 57.9484 2.40741 55.9453V32.2109H49.5926V55.9453C49.5926 57.9484 47.9726 59.5781 45.9815 59.5781Z" fill="#4D4D99"/>
<path d="M9.77034 15.5012C10.6443 15.5012 11.3554 16.1002 11.3554 16.8365C11.3554 17.5051 11.8943 18.0474 12.5591 18.0474C13.2239 18.0474 13.7628 17.5051 13.7628 16.8365C13.7628 15.1594 12.5889 13.7357 10.974 13.2541V13.0858C10.974 12.4171 10.4351 11.8749 9.77034 11.8749C9.10553 11.8749 8.56663 12.4171 8.56663 13.0858V13.2541C6.95162 13.7357 5.77777 15.1594 5.77777 16.8365C5.77777 18.9081 7.56876 20.5935 9.77034 20.5935C10.6443 20.5935 11.3554 21.1924 11.3554 21.9287C11.3554 22.6649 10.6443 23.264 9.77034 23.264C8.89633 23.264 8.18518 22.6651 8.18518 21.9288C8.18518 21.2601 7.64628 20.7179 6.98147 20.7179C6.31667 20.7179 5.77777 21.2601 5.77777 21.9288C5.77777 23.6058 6.95162 25.0295 8.56663 25.5111V25.6794C8.56663 26.3481 9.10553 26.8904 9.77034 26.8904C10.4351 26.8904 10.974 26.3481 10.974 25.6794V25.5111C12.589 25.0294 13.7628 23.6058 13.7628 21.9288C13.7628 19.8571 11.9718 18.1718 9.77034 18.1718C8.89633 18.1718 8.18518 17.5728 8.18518 16.8366C8.18518 16.1003 8.89633 15.5012 9.77034 15.5012Z" fill="#4D4D99"/>
<path d="M18.7778 13.0857V18.8982C18.7778 19.5669 19.3167 20.1091 19.9815 20.1091H44.9085C45.5733 20.1091 46.1122 19.5669 46.1122 18.8982V13.0857C46.1122 12.417 45.5733 11.8748 44.9085 11.8748H19.9815C19.3167 11.8748 18.7778 12.417 18.7778 13.0857ZM21.1852 14.2966H43.7048V17.6873H21.1852V14.2966Z" fill="#4D4D99"/>
<path d="M44.9085 23.4998H19.9815C19.3167 23.4998 18.7778 24.042 18.7778 24.7107C18.7778 25.3794 19.3167 25.9216 19.9815 25.9216H44.9085C45.5733 25.9216 46.1122 25.3794 46.1122 24.7107C46.1122 24.042 45.5733 23.4998 44.9085 23.4998Z" fill="#4D4D99"/>
<path d="M32.2191 47.615H24.9568C24.292 47.615 23.7531 48.1572 23.7531 48.8259C23.7531 49.4946 24.292 50.0369 24.9568 50.0369H32.2191C32.8839 50.0369 33.4228 49.4946 33.4228 48.8259C33.4228 48.1572 32.8838 47.615 32.2191 47.615Z" fill="#4D4D99"/>
<path d="M32.2191 41.8025H24.9568C24.292 41.8025 23.7531 42.3447 23.7531 43.0134C23.7531 43.6821 24.292 44.2244 24.9568 44.2244H32.2191C32.8839 44.2244 33.4228 43.6821 33.4228 43.0134C33.4228 42.3447 32.8838 41.8025 32.2191 41.8025Z" fill="#4D4D99"/>
<path d="M32.2191 53.4275H24.9568C24.292 53.4275 23.7531 53.9697 23.7531 54.6384C23.7531 55.3071 24.292 55.8494 24.9568 55.8494H32.2191C32.8839 55.8494 33.4228 55.3071 33.4228 54.6384C33.4228 53.9697 32.8838 53.4275 32.2191 53.4275Z" fill="#4D4D99"/>
<path d="M32.2191 35.99H24.9568C24.292 35.99 23.7531 36.5322 23.7531 37.2009C23.7531 37.8696 24.292 38.4119 24.9568 38.4119H32.2191C32.8839 38.4119 33.4228 37.8696 33.4228 37.2009C33.4228 36.5322 32.8838 35.99 32.2191 35.99Z" fill="#4D4D99"/>
<path d="M45.3447 47.615H37.9969C37.3321 47.615 36.7932 48.1572 36.7932 48.8259C36.7932 49.4946 37.3321 50.0369 37.9969 50.0369H45.3447C46.0095 50.0369 46.5484 49.4946 46.5484 48.8259C46.5484 48.1572 46.0095 47.615 45.3447 47.615Z" fill="#4D4D99"/>
<path d="M45.3447 41.8025H37.9969C37.3321 41.8025 36.7932 42.3447 36.7932 43.0134C36.7932 43.6821 37.3321 44.2244 37.9969 44.2244H45.3447C46.0095 44.2244 46.5484 43.6821 46.5484 43.0134C46.5484 42.3447 46.0095 41.8025 45.3447 41.8025Z" fill="#4D4D99"/>
<path d="M45.3447 53.4275H37.9969C37.3321 53.4275 36.7932 53.9697 36.7932 54.6384C36.7932 55.3071 37.3321 55.8494 37.9969 55.8494H45.3447C46.0095 55.8494 46.5484 55.3071 46.5484 54.6384C46.5484 53.9697 46.0095 53.4275 45.3447 53.4275Z" fill="#4D4D99"/>
<path d="M45.3447 35.99H37.9969C37.3321 35.99 36.7932 36.5322 36.7932 37.2009C36.7932 37.8696 37.3321 38.4119 37.9969 38.4119H45.3447C46.0095 38.4119 46.5484 37.8696 46.5484 37.2009C46.5484 36.5322 46.0095 35.99 45.3447 35.99Z" fill="#4D4D99"/>
<path d="M19.179 47.615H6.98147C6.31667 47.615 5.77777 48.1572 5.77777 48.8259C5.77777 49.4946 6.31667 50.0369 6.98147 50.0369H19.179C19.8438 50.0369 20.3827 49.4946 20.3827 48.8259C20.3827 48.1572 19.8438 47.615 19.179 47.615Z" fill="#4D4D99"/>
<path d="M19.179 41.8025H6.98147C6.31667 41.8025 5.77777 42.3447 5.77777 43.0134C5.77777 43.6821 6.31667 44.2244 6.98147 44.2244H19.179C19.8438 44.2244 20.3827 43.6821 20.3827 43.0134C20.3827 42.3447 19.8438 41.8025 19.179 41.8025Z" fill="#4D4D99"/>
<path d="M19.179 53.4275H6.98147C6.31667 53.4275 5.77777 53.9697 5.77777 54.6384C5.77777 55.3071 6.31667 55.8494 6.98147 55.8494H19.179C19.8438 55.8494 20.3827 55.3071 20.3827 54.6384C20.3827 53.9697 19.8438 53.4275 19.179 53.4275Z" fill="#4D4D99"/>
<path d="M19.179 35.99H6.98147C6.31667 35.99 5.77777 36.5322 5.77777 37.2009C5.77777 37.8696 6.31667 38.4119 6.98147 38.4119H19.179C19.8438 38.4119 20.3827 37.8696 20.3827 37.2009C20.3827 36.5322 19.8438 35.99 19.179 35.99Z" fill="#4D4D99"/>
<path d="M26 8.96094C26.3166 8.96094 26.6271 8.83137 26.851 8.60601C27.0749 8.3809 27.2037 8.06848 27.2037 7.75C27.2037 7.43152 27.0749 7.1191 26.851 6.89387C26.6271 6.66863 26.3166 6.53906 26 6.53906C25.6834 6.53906 25.3729 6.66851 25.149 6.89387C24.9251 7.1191 24.7963 7.43152 24.7963 7.75C24.7963 8.06848 24.9251 8.3809 25.149 8.60601C25.3729 8.83137 25.6834 8.96094 26 8.96094Z" fill="#4D4D99"/>
</svg>
