<svg width="93" height="62" viewBox="0 0 93 62" fill="none" xmlns="http://www.w3.org/2000/svg">
<path d="M46.4903 0C40.4837 0 35.597 4.84202 35.597 10.7936C35.597 16.7454 40.4837 21.5874 46.4903 21.5874C52.4968 21.5874 57.3835 16.7454 57.3835 10.7936C57.3835 4.84202 52.4968 0 46.4903 0ZM46.4903 17.9162C42.5268 17.9162 39.3021 14.721 39.3021 10.7936C39.3021 6.86627 42.5268 3.67125 46.4903 3.67125C50.4539 3.67125 53.6784 6.86645 53.6784 10.7936C53.6784 14.721 50.4539 17.9162 46.4903 17.9162Z" fill="#4D4D99"/>
<path d="M20.4098 10.9856C15.4737 10.9856 11.458 14.9646 11.458 19.8556C11.458 24.7466 15.4737 28.7256 20.4098 28.7256C25.3459 28.7256 29.3616 24.7466 29.3616 19.8556C29.3616 14.9646 25.3457 10.9856 20.4098 10.9856ZM20.4098 25.0542C17.5168 25.0542 15.1633 22.7221 15.1633 19.8556C15.1633 16.989 17.5168 14.657 20.4098 14.657C23.3028 14.657 25.6563 16.9892 25.6563 19.8556C25.6563 22.722 23.3028 25.0542 20.4098 25.0542Z" fill="#4D4D99"/>
<path d="M72.5968 10.9856C67.6609 10.9856 63.645 14.9646 63.645 19.8556C63.645 24.7466 67.6609 28.7256 72.5968 28.7256C77.5329 28.7256 81.5484 24.7466 81.5484 19.8556C81.5484 14.9646 77.5327 10.9856 72.5968 10.9856ZM72.5968 25.0542C69.7038 25.0542 67.3503 22.7221 67.3503 19.8556C67.3503 16.989 69.7038 14.657 72.5968 14.657C75.4896 14.657 77.8431 16.9892 77.8431 19.8556C77.8431 22.722 75.4896 25.0542 72.5968 25.0542Z" fill="#4D4D99"/>
<path d="M91.1474 58.3287H85.9385V44.8134C85.9385 37.5242 79.9535 31.5938 72.5969 31.5938C68.5059 31.5938 64.8412 33.4293 62.3921 36.3109C60.4811 29.3865 54.0764 24.2817 46.4902 24.2817C38.9105 24.2817 32.5119 29.3898 30.6055 36.3178C28.1599 33.4321 24.4977 31.5938 20.4097 31.5938C13.0532 31.5938 7.068 37.5242 7.068 44.8134V58.3287H1.85255C0.829371 58.3287 0 59.1505 0 60.1643C0 61.1782 0.829371 62 1.85255 62H91.1474C92.1704 62 93 61.1782 93 60.1643C93 59.1505 92.1704 58.3287 91.1474 58.3287ZM30.0263 58.3287H10.7731V44.8134C10.7731 39.5486 15.096 35.2653 20.4095 35.2653C25.7121 35.2653 30.0261 39.5486 30.0261 44.8134V58.3287H30.0263ZM59.2557 58.3287H33.7314V40.6148C33.7314 33.633 39.4549 27.953 46.4902 27.953C53.5364 27.953 59.2688 33.633 59.2688 40.6148L59.2557 58.3287ZM82.2333 58.3285H62.9739V44.3143C63.2367 39.2804 67.4526 35.2651 72.597 35.2651C77.9104 35.2651 82.2333 39.5484 82.2333 44.8132V58.3285Z" fill="#4D4D99"/>
<path d="M37.6145 44.2357C36.5913 44.2357 35.762 45.0575 35.762 46.0713V54.8794C35.762 55.8933 36.5913 56.7151 37.6145 56.7151C38.6377 56.7151 39.4671 55.8933 39.4671 54.8794V46.0715C39.4671 45.0579 38.6377 44.2357 37.6145 44.2357Z" fill="#4D4D99"/>
<path d="M37.6145 38.3641C36.5913 38.3641 35.762 39.1859 35.762 40.1998V40.5912C35.762 41.6051 36.5913 42.4268 37.6145 42.4268C38.6377 42.4268 39.4671 41.6051 39.4671 40.5912V40.1998C39.4671 39.1859 38.6377 38.3641 37.6145 38.3641Z" fill="#4D4D99"/>
</svg>
