<svg width="22" height="22" viewBox="0 0 22 22" fill="none" xmlns="http://www.w3.org/2000/svg">
<path fill-rule="evenodd" clip-rule="evenodd" d="M18.3333 3.66669H3.66666C2.65833 3.66669 1.84249 4.49169 1.84249 5.50002L1.83333 16.5C1.83333 17.5084 2.65833 18.3334 3.66666 18.3334H18.3333C19.3417 18.3334 20.1667 17.5084 20.1667 16.5V5.50002C20.1667 4.49169 19.3417 3.66669 18.3333 3.66669ZM17.9667 7.56252L11.4858 11.6142C11.1925 11.7975 10.8075 11.7975 10.5142 11.6142L4.03333 7.56252C3.80416 7.41585 3.66666 7.16835 3.66666 6.90252C3.66666 6.28835 4.33583 5.92169 4.85833 6.24252L11 10.0834L17.1417 6.24252C17.6642 5.92169 18.3333 6.28835 18.3333 6.90252C18.3333 7.16835 18.1958 7.41585 17.9667 7.56252Z" fill="#B8B8FF"/>
</svg>
