<svg width="47" height="62" viewBox="0 0 47 62" xmlns="http://www.w3.org/2000/svg">
<path d="M23.4901 0C17.5907 0 12.7913 4.84201 12.7913 10.7936C12.7913 16.7454 17.5907 21.5874 23.4901 21.5874C29.3894 21.5874 34.1888 16.7454 34.1888 10.7936C34.1888 4.84201 29.3894 0 23.4901 0ZM23.4901 17.9162C19.5973 17.9162 16.4302 14.721 16.4302 10.7936C16.4302 6.86625 19.5973 3.67124 23.4901 3.67124C27.3829 3.67124 30.5499 6.86643 30.5499 10.7936C30.5499 14.721 27.3829 17.9162 23.4901 17.9162Z"/>
<path fill-rule="evenodd" clip-rule="evenodd" d="M45.1805 58.3288H40.0646L36.4255 58.3286H39.6798V44.3144C39.6798 40.156 39.6773 38.8214 39.1084 36.311C37.2314 29.3866 30.9411 24.2819 23.4904 24.2819C16.046 24.2819 9.76159 29.3899 7.88931 36.3179C7.3204 38.8283 7.32016 40.6551 7.32022 44.8135L7.3204 58.3288H10.5808H6.94181H1.81948C0.814564 58.3288 0 59.1506 0 60.1644C0 61.1782 0.814564 62 1.81948 62H45.1805C46.1853 62 47 61.1782 47 60.1644C47 59.1506 46.1853 58.3288 45.1805 58.3288ZM10.9594 58.3288H36.028L36.0408 40.6149C36.0408 33.6331 30.4108 27.9531 23.4904 27.9531C16.5807 27.9531 10.9594 33.6331 10.9594 40.6149V58.3288Z"/>
<path d="M14.7743 44.2357C13.7694 44.2357 12.9548 45.0575 12.9548 46.0713V54.8794C12.9548 55.8932 13.7694 56.715 14.7743 56.715C15.7792 56.715 16.5938 55.8932 16.5938 54.8794V46.0715C16.5938 45.0579 15.7792 44.2357 14.7743 44.2357Z"/>
<path d="M14.7743 38.3639C13.7694 38.3639 12.9548 39.1857 12.9548 40.1995V40.591C12.9548 41.6048 13.7694 42.4266 14.7743 42.4266C15.7792 42.4266 16.5938 41.6048 16.5938 40.591V40.1995C16.5938 39.1857 15.7792 38.3639 14.7743 38.3639Z"/>
</svg>
