<svg width="63" height="62" viewBox="0 0 63 62" fill="none" xmlns="http://www.w3.org/2000/svg">
<path fill-rule="evenodd" clip-rule="evenodd" d="M61.6995 1.29064C59.9655 -0.430214 57.1443 -0.430214 55.4103 1.29064L52.4336 4.24483L50.2715 6.39048L50.1218 6.53906L49.8242 6.83447L47.6815 8.96094L47.3838 9.25634L44.9434 11.6782L42.5031 14.1001L41.1132 15.479C41.0079 15.584 40.9226 15.7074 40.8615 15.8427L37.1991 24.0066C36.9937 24.465 37.0938 25.0009 37.4508 25.3557C37.6848 25.5874 37.997 25.7104 38.3139 25.7104C38.4817 25.7104 38.6504 25.6764 38.8101 25.6059L42.5031 23.974L44.9434 22.8955L47.0363 21.9707C47.165 21.9139 47.2818 21.835 47.3838 21.738L49.8242 19.318L50.2715 18.874L52.7119 16.452L61.6995 7.53217C63.4335 5.81132 63.4335 3.0115 61.6995 1.29064ZM42.3687 18.4372L40.7214 22.1098L44.422 20.475L42.3687 18.4372ZM55.426 10.3329L52.7119 13.0267L50.2715 15.4487L46.5402 19.152L43.7018 16.3351L50.2715 9.81516L52.7119 7.39329L54.7039 5.41634L57.5423 8.23319L55.426 10.3329ZM59.2677 6.52038L59.9741 5.81983C60.7562 5.04313 60.7562 3.77969 59.9741 3.00346C59.1915 2.22675 57.9184 2.22675 57.1357 3.00346L56.4298 3.704L59.2677 6.52038Z" fill="#4D4D99"/>
<path fill-rule="evenodd" clip-rule="evenodd" d="M46.611 1.44355e-07H6.10092C2.73687 1.44355e-07 0 2.71613 0 6.05469V55.9453C0 59.2839 2.73687 62 6.10092 62H46.611C49.975 62 52.7119 59.2839 52.7119 55.9453V16.452L50.2715 18.874V29.7891H2.44037V8.96094H20.8651C21.539 8.96094 22.0853 8.41868 22.0853 7.75C22.0853 7.08132 21.539 6.53906 20.8651 6.53906H2.44037V6.05469C2.44037 4.05155 4.08249 2.42188 6.10092 2.42188H46.611C48.6294 2.42188 50.2715 4.05155 50.2715 6.05469V6.39048L52.4336 4.24483C51.6564 1.78756 49.3401 1.44355e-07 46.611 1.44355e-07ZM6.10092 59.5781H46.611C48.6294 59.5781 50.2715 57.9484 50.2715 55.9453V32.2109H2.44037V55.9453C2.44037 57.9484 4.08249 59.5781 6.10092 59.5781Z" fill="#4D4D99"/>
<path d="M50.1218 6.53906H31.8468C31.1729 6.53906 30.6266 7.08132 30.6266 7.75C30.6266 8.41868 31.1729 8.96094 31.8468 8.96094H47.6815L49.8242 6.83447L50.1218 6.53906Z" fill="#4D4D99"/>
<path d="M5.85687 13.0857V18.8982C5.85687 19.5669 6.40315 20.1091 7.07706 20.1091H32.3453C33.0192 20.1091 33.5655 19.5669 33.5655 18.8982V13.0857C33.5655 12.417 33.0192 11.8748 32.3453 11.8748H7.07706C6.40315 11.8748 5.85687 12.417 5.85687 13.0857ZM8.29724 14.2966H31.1252V17.6873H8.29724V14.2966Z" fill="#4D4D99"/>
<path d="M32.3453 23.4998H7.07706C6.40315 23.4998 5.85687 24.042 5.85687 24.7107C5.85687 25.3794 6.40315 25.9216 7.07706 25.9216H32.3453C33.0192 25.9216 33.5655 25.3794 33.5655 24.7107C33.5655 24.042 33.0192 23.4998 32.3453 23.4998Z" fill="#4D4D99"/>
<path d="M32.6602 47.6151H25.2985C24.6246 47.6151 24.0783 48.1574 24.0783 48.826C24.0783 49.4947 24.6246 50.037 25.2985 50.037H32.6602C33.3341 50.037 33.8804 49.4947 33.8804 48.826C33.8804 48.1574 33.334 47.6151 32.6602 47.6151Z" fill="#4D4D99"/>
<path d="M32.6602 41.8026H25.2985C24.6246 41.8026 24.0783 42.3449 24.0783 43.0135C24.0783 43.6822 24.6246 44.2245 25.2985 44.2245H32.6602C33.3341 44.2245 33.8804 43.6822 33.8804 43.0135C33.8804 42.3449 33.334 41.8026 32.6602 41.8026Z" fill="#4D4D99"/>
<path d="M32.6602 53.4275H25.2985C24.6246 53.4275 24.0783 53.9697 24.0783 54.6384C24.0783 55.3071 24.6246 55.8494 25.2985 55.8494H32.6602C33.3341 55.8494 33.8804 55.3071 33.8804 54.6384C33.8804 53.9697 33.334 53.4275 32.6602 53.4275Z" fill="#4D4D99"/>
<path d="M32.6602 35.99H25.2985C24.6246 35.99 24.0783 36.5322 24.0783 37.2009C24.0783 37.8696 24.6246 38.4119 25.2985 38.4119H32.6602C33.3341 38.4119 33.8804 37.8696 33.8804 37.2009C33.8804 36.5322 33.334 35.99 32.6602 35.99Z" fill="#4D4D99"/>
<path d="M45.9655 47.6151H38.5171C37.8432 47.6151 37.2969 48.1574 37.2969 48.826C37.2969 49.4947 37.8432 50.037 38.5171 50.037H45.9655C46.6394 50.037 47.1856 49.4947 47.1856 48.826C47.1856 48.1574 46.6394 47.6151 45.9655 47.6151Z" fill="#4D4D99"/>
<path d="M45.9655 41.8026H38.5171C37.8432 41.8026 37.2969 42.3449 37.2969 43.0135C37.2969 43.6822 37.8432 44.2245 38.5171 44.2245H45.9655C46.6394 44.2245 47.1856 43.6822 47.1856 43.0135C47.1856 42.3449 46.6394 41.8026 45.9655 41.8026Z" fill="#4D4D99"/>
<path d="M45.9655 53.4275H38.5171C37.8432 53.4275 37.2969 53.9697 37.2969 54.6384C37.2969 55.3071 37.8432 55.8494 38.5171 55.8494H45.9655C46.6394 55.8494 47.1856 55.3071 47.1856 54.6384C47.1856 53.9697 46.6394 53.4275 45.9655 53.4275Z" fill="#4D4D99"/>
<path d="M45.9655 35.99H38.5171C37.8432 35.99 37.2969 36.5322 37.2969 37.2009C37.2969 37.8696 37.8432 38.4119 38.5171 38.4119H45.9655C46.6394 38.4119 47.1856 37.8696 47.1856 37.2009C47.1856 36.5322 46.6394 35.99 45.9655 35.99Z" fill="#4D4D99"/>
<path d="M19.4415 47.6151H7.07706C6.40315 47.6151 5.85687 48.1574 5.85687 48.826C5.85687 49.4947 6.40315 50.037 7.07706 50.037H19.4415C20.1154 50.037 20.6617 49.4947 20.6617 48.826C20.6617 48.1574 20.1154 47.6151 19.4415 47.6151Z" fill="#4D4D99"/>
<path d="M19.4415 41.8026H7.07706C6.40315 41.8026 5.85687 42.3449 5.85687 43.0135C5.85687 43.6822 6.40315 44.2245 7.07706 44.2245H19.4415C20.1154 44.2245 20.6617 43.6822 20.6617 43.0135C20.6617 42.3449 20.1154 41.8026 19.4415 41.8026Z" fill="#4D4D99"/>
<path d="M19.4415 53.4275H7.07706C6.40315 53.4275 5.85687 53.9697 5.85687 54.6384C5.85687 55.3071 6.40315 55.8494 7.07706 55.8494H19.4415C20.1154 55.8494 20.6617 55.3071 20.6617 54.6384C20.6617 53.9697 20.1154 53.4275 19.4415 53.4275Z" fill="#4D4D99"/>
<path d="M19.4415 35.99H7.07706C6.40315 35.99 5.85687 36.5322 5.85687 37.2009C5.85687 37.8696 6.40315 38.4119 7.07706 38.4119H19.4415C20.1154 38.4119 20.6617 37.8696 20.6617 37.2009C20.6617 36.5322 20.1154 35.99 19.4415 35.99Z" fill="#4D4D99"/>
<path d="M26.356 8.96094C26.6769 8.96094 26.9917 8.83137 27.2186 8.60601C27.4456 8.3809 27.5761 8.06848 27.5761 7.75C27.5761 7.43152 27.4456 7.1191 27.2186 6.89387C26.9917 6.66863 26.6769 6.53906 26.356 6.53906C26.035 6.53906 25.7202 6.66851 25.4933 6.89387C25.2663 7.1191 25.1358 7.43152 25.1358 7.75C25.1358 8.06848 25.2663 8.3809 25.4933 8.60601C25.7202 8.83137 26.035 8.96094 26.356 8.96094Z" fill="#4D4D99"/>
</svg>
